<?xml version="1.0" standalone="no"?>
<!DOCTYPE svg PUBLIC "-//W3C//DTD SVG 1.1//EN" "http://www.w3.org/Graphics/SVG/1.1/DTD/svg11.dtd" >
<svg xmlns="http://www.w3.org/2000/svg" xmlns:xlink="http://www.w3.org/1999/xlink" version="1.1">
<metadata></metadata>
<defs>
<font id="pop_warnerregular" horiz-adv-x="1024" >
<font-face units-per-em="2048" ascent="1638" descent="-410" />
<missing-glyph horiz-adv-x="600" />
<glyph horiz-adv-x="0" />
<glyph horiz-adv-x="682" />
<glyph horiz-adv-x="378" d="M0 1546l61 -61h154l61 61v185l-61 61h-154l-61 -61v-185zM92 1577v123h92v-123h-92z" />
<glyph unicode="&#xd;" />
<glyph horiz-adv-x="1280" d="M0 709h205v-709h307v717h358v-717h308v1024h-666v102h256v308h-358l-205 -308v-102h-205v-315zM870 1126v308h308v-308h-308z" />
<glyph horiz-adv-x="1382" d="M0 709v315h205v102l205 308h716v-1127h154v-307h-461v1126h-307v-102h205v-307h-205v-717h-307v709h-205z" />
<glyph horiz-adv-x="1353" d="M0 645l330 164v625h307v-469l278 139l138 -275l-416 -208v-314h614v-307h-921v467l-193 -96z" />
<glyph horiz-adv-x="1155" d="M0 653l915 459l138 -274l-916 -459zM397 0v1434h308v-1127h153v-307h-461z" />
<glyph d="M0 0v307l549 819h-549v308h922v-308l-551 -819h551v-307h-922zM205 1741l256 -307l256 307l-256 -103z" />
<glyph d="M0 0l389 717h-389v307h922l-390 -717h390v-307h-922zM205 1331l256 -307l256 307l-256 -102z" />
<glyph unicode=" "  horiz-adv-x="600" />
<glyph unicode="&#x09;" horiz-adv-x="600" />
<glyph unicode="&#xa0;" horiz-adv-x="600" />
<glyph unicode="!" horiz-adv-x="409" d="M0 0v307h307v-307h-307zM0 410v1024h307v-1024h-307z" />
<glyph unicode="&#x22;" horiz-adv-x="819" d="M0 1434h307l-51 -410h-205zM410 1434h307l-51 -410h-205z" />
<glyph unicode="#" horiz-adv-x="1126" d="M0 307v307h154v205h-154v307h154v308h307v-308h102v308h307v-308h154v-307h-154v-205h154v-307h-154v-307h-307v307h-102v-307h-307v307h-154zM461 614h102v205h-102v-205z" />
<glyph unicode="$" d="M0 410l205 -205h102v-205h307v205h103l205 205v256l-205 204h-410v52h615v102l-205 205h-103v205h-307v-205h-102l-205 -205v-256l205 -205h409v-51h-614v-102z" />
<glyph unicode="&#x26;" d="M0 205l205 -205h717v307h-154v256h154v307h-615v256h307v-51h308v154l-205 205h-512l-205 -205v-461l51 -51l-51 -51v-461zM307 307v256h154v-256h-154z" />
<glyph unicode="'" horiz-adv-x="409" d="M0 1434h307l-51 -410h-205z" />
<glyph unicode="(" horiz-adv-x="614" d="M0 -102v1638l205 205h307v-307h-205v-1434h205v-307h-307z" />
<glyph unicode=")" horiz-adv-x="614" d="M0 0v-307h307l205 205v1638l-205 205h-307v-307h205v-1434h-205z" />
<glyph unicode="+" horiz-adv-x="819" d="M0 614v308h205v204h307v-204h205v-308h-205v-204h-307v204h-205z" />
<glyph unicode="," horiz-adv-x="409" d="M0 -205v512h307v-307z" />
<glyph unicode="-" horiz-adv-x="819" d="M0 614v308h717v-308h-717z" />
<glyph unicode="." horiz-adv-x="409" d="M0 0v307h307v-307h-307z" />
<glyph unicode="/" horiz-adv-x="1126" d="M0 0l672 1434h352l-670 -1434h-354z" />
<glyph unicode="0" d="M0 205l205 -205h512l205 205v1024l-205 205h-512l-205 -205v-1024zM307 307v819h307v-819h-307z" />
<glyph unicode="1" horiz-adv-x="589" d="M0 1024h180v-1024h307v1434h-231q-4 -49 -18.5 -92.5t-44 -75t-76.5 -53t-117 -27.5v-162z" />
<glyph unicode="2" d="M0 0v614l614 359v153h-307v-102h-307v205l205 205h512l205 -205v-408l-615 -377v-137h615v-307h-922z" />
<glyph unicode="3" d="M0 205l205 -205h512l205 205v461l-52 51l52 51v461l-205 205h-512l-205 -205v-256h307v153h307v-256h-307v-307h307v-256h-307v154h-307v-256z" />
<glyph unicode="4" horiz-adv-x="1126" d="M0 512l188 -307h426v-205h308v205h102v307h-102v922h-308zM350 512l264 379v-379h-264z" />
<glyph unicode="5" d="M0 205l205 -205h512l205 205v461l-205 204h-410v256h615v308h-922v-615l205 -256h409v-256h-307v103h-307v-205z" />
<glyph unicode="6" d="M0 205l205 -205h512l205 205v461l-205 204h-410v256h307v-102h308v205l-205 205h-512l-205 -205v-1024zM307 307v256h307v-256h-307z" />
<glyph unicode="7" d="M0 973h307v153h316l-418 -1126h352l365 1126l-103 308h-819v-461z" />
<glyph unicode="8" d="M0 205l205 -205h512l205 205v461l-52 51l52 51v461l-205 205h-512l-205 -205v-461l51 -51l-51 -51v-461zM307 307v256h307v-256h-307zM307 870v256h307v-256h-307z" />
<glyph unicode="9" d="M0 205l205 -205h512l205 205v1024l-205 205h-512l-205 -205v-461l205 -205h409v-256h-307v103h-307v-205zM307 870v256h307v-256h-307z" />
<glyph unicode=":" horiz-adv-x="409" d="M0 0v307h307v-307h-307zM0 512v307h307v-307h-307z" />
<glyph unicode=";" horiz-adv-x="409" d="M0 -205v512h307v-307zM0 512v307h307v-307h-307z" />
<glyph unicode="&#x3c;" horiz-adv-x="1126" d="M0 512l1024 -307v358l-512 103l512 102v358l-1024 -307v-307z" />
<glyph unicode="=" horiz-adv-x="819" d="M0 205v307h717v-307h-717zM0 614v308h717v-308h-717z" />
<glyph unicode="&#x3e;" horiz-adv-x="1126" d="M0 205l1024 307v307l-1024 307v-358l512 -102l-512 -103v-358z" />
<glyph unicode="?" d="M0 1024v205l205 205h512l205 -205v-461l-205 -205h-103v-153h-307v204l205 256h102v256h-307v-102h-307zM307 0v307h307v-307h-307z" />
<glyph unicode="@" horiz-adv-x="1536" d="M0 154l307 -308h819l308 308h-1127v1126h819v-768h-51v512l-205 205h-307l-205 -205v-102h410v-52h-205l-205 -204v-256l205 -205h205l102 102l103 -102h153l308 307v768l-308 307h-819l-307 -307v-1126zM666 512v51h102v-51h-102z" />
<glyph unicode="A" d="M0 0l307 1434h307l308 -1434h-308l-36 205h-236l-35 -205h-307zM395 512h129l-63 369z" />
<glyph unicode="B" d="M0 0h717l205 205v461l-52 51l52 51v461l-205 205h-717v-1434zM307 307v256h307v-256h-307zM307 870v256h307v-256h-307z" />
<glyph unicode="C" d="M0 205l205 -205h512l205 205v205h-308v-103h-307v819h307v-102h308v205l-205 205h-512l-205 -205v-1024z" />
<glyph unicode="D" d="M0 0h717l205 205v1024l-205 205h-717v-1434zM307 307v819h307v-819h-307z" />
<glyph unicode="E" d="M0 0h922v307h-615v256h307v307h-307v256h615v308h-922v-1434z" />
<glyph unicode="F" d="M0 0h307v563h307v307h-307v256h615v308h-922v-1434z" />
<glyph unicode="G" d="M0 205l205 -205h512l205 205v665h-461v-307h153v-256h-307v819h307v-102h308v205l-205 205h-512l-205 -205v-1024z" />
<glyph unicode="H" d="M0 0v1434h307v-564h307v564h308v-1434h-308v563h-307v-563h-307z" />
<glyph unicode="I" horiz-adv-x="409" d="M0 0v1434h307v-1434h-307z" />
<glyph unicode="J" d="M0 205l205 -205h512l205 205v1229h-308v-1127h-307v307h-307v-409z" />
<glyph unicode="K" d="M0 0h307v387l279 -387h336l-471 717l471 717h-377l-238 -387v387h-307v-1434zM586 0h336h-336z" />
<glyph unicode="L" d="M0 0v1434h307v-1127h615v-307h-922z" />
<glyph unicode="M" horiz-adv-x="1536" d="M0 0v1434h307l410 -922l409 922h308v-1434h-308v768l-307 -768h-205l-307 768v-768h-307z" />
<glyph unicode="N" horiz-adv-x="1126" d="M0 0h307v774l410 -774h307v1434h-307v-777l-410 777h-307v-1434z" />
<glyph unicode="O" d="M0 205l205 -205h512l205 205v1024l-205 205h-512l-205 -205v-1024zM307 307v819h307v-819h-307z" />
<glyph unicode="P" d="M0 0h307v563h410l205 205v461l-205 205h-717v-1434zM307 870v256h307v-256h-307z" />
<glyph unicode="Q" d="M0 205l205 -205h307l205 -307h205v307h-205l205 205v1024l-205 205h-512l-205 -205v-1024zM307 307v819h307v-819h-307z" />
<glyph unicode="R" d="M0 0h307v563h78l229 -563l308 -4l-209 567h4l205 205v461l-205 205h-717v-1434zM307 870v256h307v-256h-307z" />
<glyph unicode="S" d="M0 205l205 -205h512l205 205v461l-205 204h-410v256h307v-102h308v205l-205 205h-512l-205 -205v-461l205 -205h409v-256h-307v103h-307v-205z" />
<glyph unicode="T" d="M0 1126h307v-1126h307v1126h308v308h-922v-308z" />
<glyph unicode="U" d="M0 205l205 -205h512l205 205v1229h-308v-1127h-307v1127h-307v-1229z" />
<glyph unicode="V" d="M0 1434l307 -1434h307l308 1434h-308l-153 -881l-154 881h-307z" />
<glyph unicode="W" horiz-adv-x="1515" d="M0 1434l307 -1434h307l103 717l82 -717h307l307 1434h-307l-154 -881l-133 881h-205l-153 -881l-154 881h-307z" />
<glyph unicode="X" d="M0 0h346l115 457l108 -457h353l-287 768l287 666h-351l-110 -342l-109 342h-352l287 -666z" />
<glyph unicode="Y" d="M0 1434h346l115 -457l108 457h353l-308 -768v-666h-307v666z" />
<glyph unicode="Z" d="M0 0v307l549 819h-549v308h922v-308l-551 -819h551v-307h-922z" />
<glyph unicode="[" horiz-adv-x="614" d="M0 -307v2048h512v-307h-205v-1434h205v-307h-512z" />
<glyph unicode="\" horiz-adv-x="1126" d="M0 1434l670 -1434h354l-672 1434h-352z" />
<glyph unicode="]" horiz-adv-x="614" d="M0 0v-307h512v2048h-512v-307h205v-1434h-205z" />
<glyph unicode="^" d="M0 410l307 1024h307l308 -1024h-359l-102 512l-103 -512h-358z" />
<glyph unicode="_" horiz-adv-x="1536" d="M0 0h1434v-307h-1434v307z" />
<glyph unicode="`" horiz-adv-x="409" d="M0 1126l307 -204v512h-307v-308z" />
<glyph unicode="a" d="M0 205l205 -205h409l103 102l102 -102h103v819l-205 205h-512l-205 -205v-102h614v-51h-409l-205 -205v-256zM307 307v51h307v-51h-307z" />
<glyph unicode="b" d="M0 0v1434h307v-512l103 102h307l205 -205v-614l-205 -205h-307l-103 102l-102 -102h-205zM307 307h307v410h-307v-410z" />
<glyph unicode="c" d="M0 205l205 -205h512l205 205v205h-308v-103h-307v410h307v-103h308v205l-205 205h-512l-205 -205v-614z" />
<glyph unicode="d" d="M0 205l205 -205h307l102 102l103 -102h205v1434h-308v-512l-102 102h-307l-205 -205v-614zM307 307v410h307v-410h-307z" />
<glyph unicode="e" d="M0 205l205 -205h512l205 205v102h-615v51h615v461l-205 205h-512l-205 -205v-614zM307 666v51h307v-51h-307z" />
<glyph unicode="f" horiz-adv-x="870" d="M0 657h205v-657h307v666h205v307h-205v153h256v308h-358l-205 -308v-153h-205v-316z" />
<glyph unicode="g" d="M0 -51v-154l205 -205h512l205 205v1229h-205l-103 -102l-102 102h-307l-205 -205v-614l205 -205h409v-102h-307v51h-307zM307 307v410h307v-410h-307z" />
<glyph unicode="h" d="M0 0v1434h307v-512l103 102h307l205 -205v-819h-308v717h-307v-717h-307z" />
<glyph unicode="i" horiz-adv-x="563" d="M0 717h154v-717h307v1024h-461v-307zM154 1126v308h307v-308h-307z" />
<glyph unicode="j" horiz-adv-x="409" d="M-154 -154v-256h205l256 308v1126h-307v-1024zM0 1126v308h307v-308h-307z" />
<glyph unicode="k" d="M0 0v1434h307v-631l283 280h332l-455 -518l455 -565h-359l-256 326v-326h-307z" />
<glyph unicode="l" horiz-adv-x="563" d="M0 0v1434h307v-1127h154v-307h-461z" />
<glyph unicode="m" horiz-adv-x="1331" d="M0 0v1024h307v-102l103 102h256l102 -102l102 102h154l205 -205v-819h-307v717h-154v-717h-307v717h-154v-717h-307z" />
<glyph unicode="n" d="M0 0v1024h307v-102l103 102h307l205 -205v-819h-308v717h-307v-717h-307z" />
<glyph unicode="o" d="M0 205l205 -205h512l205 205v614l-205 205h-512l-205 -205v-614zM307 307v410h307v-410h-307z" />
<glyph unicode="p" d="M0 -410h307v512l103 -102h307l205 205v614l-205 205h-307l-103 -102l-102 102h-205v-1434zM307 307v410h307v-410h-307z" />
<glyph unicode="q" d="M0 205v614l205 205h307l102 -102l103 102h205v-1434h-308v512l-102 -102h-307zM307 307h307v410h-307v-410z" />
<glyph unicode="r" horiz-adv-x="819" d="M0 0v1024h307v-102l103 102h307v-307h-410v-717h-307z" />
<glyph unicode="s" d="M0 205l205 -205h512l205 205v256l-205 205h-410v51h615v102l-205 205h-512l-205 -205v-256l205 -205h409v-51h-614v-102z" />
<glyph unicode="t" horiz-adv-x="819" d="M0 819v316h205l153 299h154v-308h205v-307h-205v-512h205v-307h-359l-153 307v512h-205z" />
<glyph unicode="u" d="M0 205l205 -205h512l205 205v819h-308v-717h-307v717h-307v-819z" />
<glyph unicode="v" d="M0 1024l307 -1024h307l308 1024h-359l-102 -512l-103 512h-358z" />
<glyph unicode="w" horiz-adv-x="1331" d="M0 1024l256 -1024h256l102 385l103 -385h260l252 1024h-295l-84 -358l-82 358h-301l-84 -358l-84 358h-299z" />
<glyph unicode="x" d="M0 0h346l115 281l108 -281h353l-256 512l256 512h-351l-110 -293l-109 293h-352l256 -512z" />
<glyph unicode="y" d="M0 1024l307 -1024l-153 -410h325l443 1434h-359l-102 -512l-103 512h-358z" />
<glyph unicode="z" d="M0 0l389 717h-389v307h922l-390 -717h390v-307h-922z" />
<glyph unicode="{" horiz-adv-x="716" d="M0 717l102 153v666l205 205h307v-307h-204v-594l-103 -123l103 -123v-594h204v-307h-307l-205 205v665z" />
<glyph unicode="|" horiz-adv-x="409" d="M0 -307v2048h307v-2048h-307z" />
<glyph unicode="}" horiz-adv-x="716" d="M0 0v-307h307l205 205v665l102 154l-102 153v666l-205 205h-307v-307h205v-594l102 -123l-102 -123v-594h-205z" />
<glyph unicode="&#xa1;" horiz-adv-x="409" d="M0 0h307v1024h-307v-1024zM0 1126h307v308h-307v-308z" />
<glyph unicode="&#xa2;" d="M0 205l205 -205h102v-307h307v307h103l205 205v205h-308v-103h-307v410h307v-103h308v205l-205 205h-103v307h-307v-307h-102l-205 -205v-614z" />
<glyph unicode="&#xa3;" d="M0 0v307h102v307h-102v308h102v307l205 205h615v-410h-308v102h-204v-204h102v-308h-102v-307h204v154h308v-461h-922z" />
<glyph unicode="&#xa5;" d="M0 1434h346l115 -457l108 457h353l-246 -615h143v-307h-205v-102h205v-308h-205v-102h-307v102h-205v308h205v102h-205v307h144z" />
<glyph unicode="&#xa6;" horiz-adv-x="409" d="M0 -307v973h307v-973h-307zM0 768v973h307v-973h-307z" />
<glyph unicode="&#xa9;" horiz-adv-x="1536" d="M0 154l307 -308h819l308 308v1126l-308 307h-819l-307 -307v-1126zM307 154v1126h819v-1126h-819zM358 410l205 -205h307l205 205v204h-307v-102h-102v410h102v-103h307v205l-205 205h-307l-205 -205v-614z" />
<glyph unicode="&#xad;" horiz-adv-x="819" d="M0 614v308h717v-308h-717z" />
<glyph unicode="&#xae;" horiz-adv-x="1536" d="M0 154l307 -308h819l308 308v1126l-308 307h-819l-307 -307v-1126zM307 154v1126h819v-1126h-819zM356 205h308v205l102 -205l307 -4l-209 280h4l205 205v338l-205 205h-512v-1024zM664 788v134h102v-134h-102z" />
<glyph unicode="&#xb1;" horiz-adv-x="819" d="M0 51v307h717v-307h-717zM0 614v308h205v204h307v-204h205v-308h-205v-204h-307v204h-205z" />
<glyph unicode="&#xb4;" horiz-adv-x="409" d="M0 922v512h307v-308z" />
<glyph unicode="&#xb5;" d="M0 -410v1434h307v-717h307v717h308v-1024h-308v102l-102 -102h-205v-410h-307z" />
<glyph unicode="&#xb7;" horiz-adv-x="378" d="M0 625l61 -62h154l61 62v184l-61 61h-154l-61 -61v-184z" />
<glyph unicode="&#xbf;" d="M0 205l205 -205h512l205 205v461l-205 204h-103v154h-307v-205l205 -256h102v-256h-307v103h-307v-205zM307 1126h307v308h-307v-308z" />
<glyph unicode="&#xc0;" d="M0 0l307 1434h307l308 -1434h-308l-36 205h-236l-35 -205h-307zM205 1485h512l-512 307v-307zM395 512h129l-63 369z" />
<glyph unicode="&#xc1;" d="M0 0h307l37 205h236l34 -205h308l-308 1434h-307zM205 1485l512 307v-307h-512zM397 512l64 369l65 -369h-129z" />
<glyph unicode="&#xc2;" d="M0 0l307 1434h307l308 -1434h-308l-36 205h-236l-35 -205h-307zM205 1485l256 102l256 -102l-256 307zM395 512h129l-63 369z" />
<glyph unicode="&#xc3;" d="M0 0l307 1434h307l308 -1434h-308l-36 205h-236l-35 -205h-307zM205 1485l153 102l154 -102l205 307l-154 -102l-153 102zM395 512h129l-63 369z" />
<glyph unicode="&#xc4;" d="M0 0l307 1434h307l308 -1434h-308l-36 205h-236l-35 -205h-307zM51 1485v307h307v-307h-307zM395 512h129l-63 369zM563 1485v307h307v-307h-307z" />
<glyph unicode="&#xc5;" d="M0 0l307 1434h307l308 -1434h-308l-36 205h-236l-35 -205h-307zM322 1495l61 -61h154l61 61v184l-61 62h-154l-61 -62v-184zM395 512h129l-63 369zM414 1526v123h92v-123h-92z" />
<glyph unicode="&#xc6;" horiz-adv-x="1177" d="M0 0h307l35 205h119v-205h614v307h-307v256h307v307h-307v256h307v308h-768zM395 512l66 369v-369h-66z" />
<glyph unicode="&#xc7;" d="M0 205l205 -205h512l205 205v205h-308v-103h-307v819h307v-102h308v205l-205 205h-512l-205 -205v-1024zM307 0h307v-102l-307 -205v307z" />
<glyph unicode="&#xc8;" d="M0 0h922v307h-615v256h307v307h-307v256h615v308h-922v-1434zM205 1485h512l-512 307v-307z" />
<glyph unicode="&#xc9;" d="M0 0h922v307h-615v256h307v307h-307v256h615v308h-922v-1434zM205 1485h512v307z" />
<glyph unicode="&#xca;" d="M0 0h922v307h-615v256h307v307h-307v256h615v308h-922v-1434zM205 1485l256 102l256 -102l-256 307z" />
<glyph unicode="&#xcb;" d="M0 0h922v307h-615v256h307v307h-307v256h615v308h-922v-1434zM51 1485v307h307v-307h-307zM563 1485v307h307v-307h-307z" />
<glyph unicode="&#xcc;" horiz-adv-x="614" d="M0 1485h512l-512 307v-307zM102 0v1434h308v-1434h-308z" />
<glyph unicode="&#xcd;" horiz-adv-x="614" d="M0 1485l512 307v-307h-512zM102 0h308v1434h-308v-1434z" />
<glyph unicode="&#xce;" horiz-adv-x="614" d="M0 1485l256 102l256 -102l-256 307zM102 0v1434h308v-1434h-308z" />
<glyph unicode="&#xcf;" horiz-adv-x="921" d="M0 1485v307h307v-307h-307zM256 0v1434h307v-1434h-307zM512 1485v307h307v-307h-307z" />
<glyph unicode="&#xd0;" horiz-adv-x="1177" d="M0 563v307h154v564h716l205 -205v-1024l-205 -205h-716v563h-154zM461 307h307v819h-307v-256h153v-307h-153v-256z" />
<glyph unicode="&#xd1;" horiz-adv-x="1126" d="M0 0h307v774l410 -774h307v1434h-307v-777l-410 777h-307v-1434zM256 1485l154 102l153 -102l205 307l-154 -102l-153 102z" />
<glyph unicode="&#xd2;" d="M0 205l205 -205h512l205 205v1024l-205 205h-512l-205 -205v-1024zM205 1485h512l-512 307v-307zM307 307v819h307v-819h-307z" />
<glyph unicode="&#xd3;" d="M0 205v1024l205 205h512l205 -205v-1024l-205 -205h-512zM205 1485l512 307v-307h-512zM307 307h307v819h-307v-819z" />
<glyph unicode="&#xd4;" d="M0 205l205 -205h512l205 205v1024l-205 205h-512l-205 -205v-1024zM205 1485l256 102l256 -102l-256 307zM307 307v819h307v-819h-307z" />
<glyph unicode="&#xd5;" d="M0 205l205 -205h512l205 205v1024l-205 205h-512l-205 -205v-1024zM205 1485l153 102l154 -102l205 307l-154 -102l-153 102zM307 307v819h307v-819h-307z" />
<glyph unicode="&#xd6;" d="M0 205l205 -205h512l205 205v1024l-205 205h-512l-205 -205v-1024zM51 1485v307h307v-307h-307zM307 307v819h307v-819h-307zM563 1485v307h307v-307h-307z" />
<glyph unicode="&#xd7;" d="M0 205h346l115 280l108 -280h353l-256 512l256 512h-351l-110 -293l-109 293h-352l256 -512z" />
<glyph unicode="&#xd8;" horiz-adv-x="1126" d="M0 0l82 174l-31 31v1024l205 205h768l-82 -174l31 -31v-1024l-205 -205h-768zM358 764l168 362h-168v-362zM498 307h168v359z" />
<glyph unicode="&#xd9;" d="M0 205l205 -205h512l205 205v1229h-308v-1127h-307v1127h-307v-1229zM256 1485h512l-512 307v-307z" />
<glyph unicode="&#xda;" d="M0 205v1229h307v-1127h307v1127h308v-1229l-205 -205h-512zM154 1485l512 307v-307h-512z" />
<glyph unicode="&#xdb;" d="M0 205l205 -205h512l205 205v1229h-308v-1127h-307v1127h-307v-1229zM205 1485l256 102l256 -102l-256 307z" />
<glyph unicode="&#xdc;" d="M0 205l205 -205h512l205 205v1229h-308v-1127h-307v1127h-307v-1229zM51 1485v307h307v-307h-307zM563 1485v307h307v-307h-307z" />
<glyph unicode="&#xdd;" d="M0 1434h346l115 -457l108 457h353l-308 -768v-666h-307v666zM256 1485h512v307z" />
<glyph unicode="&#xde;" d="M0 0h307v291h410l205 205v460l-205 205h-410v273h-305zM307 598v256h307v-256h-307z" />
<glyph unicode="&#xdf;" d="M0 0h307v1126h307v-256h-256v-307h256v-256h-256v-307h359l205 205v461l-52 51l52 51v461l-205 205h-512l-205 -205v-1229z" />
<glyph unicode="&#xe0;" d="M0 205l205 -205h409l103 102l102 -102h103v819l-205 205h-512l-205 -205v-102h614v-51h-409l-205 -205v-256zM205 1126h512l-512 308v-308zM307 307v51h307v-51h-307z" />
<glyph unicode="&#xe1;" d="M0 205l205 -205h409l103 102l102 -102h103v819l-205 205h-512l-205 -205v-102h614v-51h-409l-205 -205v-256zM205 1126h512v308zM307 307v51h307v-51h-307z" />
<glyph unicode="&#xe2;" d="M0 205l205 -205h409l103 102l102 -102h103v819l-205 205h-512l-205 -205v-102h614v-51h-409l-205 -205v-256zM205 1126l256 103l256 -103l-256 308zM307 307v51h307v-51h-307z" />
<glyph unicode="&#xe3;" d="M0 205l205 -205h409l103 102l102 -102h103v819l-205 205h-512l-205 -205v-102h614v-51h-409l-205 -205v-256zM205 1126l153 103l154 -103l205 308l-154 -103l-153 103zM307 307v51h307v-51h-307z" />
<glyph unicode="&#xe4;" d="M0 205l205 -205h409l103 102l102 -102h103v819l-205 205h-512l-205 -205v-102h614v-51h-409l-205 -205v-256zM51 1126v308h307v-308h-307zM307 307v51h307v-51h-307zM563 1126v308h307v-308h-307z" />
<glyph unicode="&#xe5;" d="M0 205l205 -205h409l103 102l102 -102h103v819l-205 205h-164l61 61v185l-61 61h-154l-61 -61v-185l61 -61h-194l-205 -205v-102h614v-51h-409l-205 -205v-256zM307 307v51h307v-51h-307zM430 1116v123h92v-123h-92z" />
<glyph unicode="&#xe6;" horiz-adv-x="1638" d="M0 205l205 -205h409l103 102l102 -102h512l205 205v102h-614v51h614v461l-205 205h-512l-51 -51l-51 51h-512l-205 -205v-102h614v-51h-409l-205 -205v-256zM307 307v51h307v-51h-307zM922 666v51h307v-51h-307z" />
<glyph unicode="&#xe7;" d="M0 205l205 -205h512l205 205v205h-308v-103h-307v410h307v-103h308v205l-205 205h-512l-205 -205v-614zM307 0h307v-102l-307 -205v307z" />
<glyph unicode="&#xe8;" d="M0 205l205 -205h512l205 205v102h-615v51h615v461l-205 205h-512l-205 -205v-614zM205 1126h512l-512 308v-308zM307 666v51h307v-51h-307z" />
<glyph unicode="&#xe9;" d="M0 205l205 -205h512l205 205v102h-615v51h615v461l-205 205h-512l-205 -205v-614zM205 1126h512v308zM307 666v51h307v-51h-307z" />
<glyph unicode="&#xea;" d="M0 205l205 -205h512l205 205v102h-615v51h615v461l-205 205h-512l-205 -205v-614zM205 1126l256 103l256 -103l-256 308zM307 666v51h307v-51h-307z" />
<glyph unicode="&#xeb;" d="M0 205l205 -205h512l205 205v102h-615v51h615v461l-205 205h-512l-205 -205v-614zM51 1126v308h307v-308h-307zM307 666v51h307v-51h-307zM563 1126v308h307v-308h-307z" />
<glyph unicode="&#xec;" horiz-adv-x="614" d="M0 717h154v-717h307v1024h-461v-307zM0 1126h512l-512 308v-308z" />
<glyph unicode="&#xed;" horiz-adv-x="614" d="M0 717h154v-717h307v1024h-461v-307zM0 1126h512v308z" />
<glyph unicode="&#xee;" horiz-adv-x="614" d="M0 717h154v-717h307v1024h-461v-307zM0 1126l256 103l256 -103l-256 308z" />
<glyph unicode="&#xef;" horiz-adv-x="921" d="M0 1126v308h307v-308h-307zM154 717h153v-717h307v1024h-460v-307zM512 1126v308h307v-308h-307z" />
<glyph unicode="&#xf0;" d="M0 205v461l205 204h368l-67 101l-103 -60l-153 267l88 51l-133 205h348l37 -60l117 68l153 -266l-100 -60l162 -246v-665l-205 -205h-512zM307 307h307v256h-307v-256z" />
<glyph unicode="&#xf1;" d="M0 0v1024h307v-102l103 102h307l205 -205v-819h-308v717h-307v-717h-307zM205 1126l153 103l154 -103l205 308l-154 -103l-153 103z" />
<glyph unicode="&#xf2;" d="M0 205l205 -205h512l205 205v614l-205 205h-512l-205 -205v-614zM205 1126h512l-512 308v-308zM307 307v410h307v-410h-307z" />
<glyph unicode="&#xf3;" d="M0 205l205 -205h512l205 205v614l-205 205h-512l-205 -205v-614zM205 1126h512v308zM307 307v410h307v-410h-307z" />
<glyph unicode="&#xf4;" d="M0 205l205 -205h512l205 205v614l-205 205h-512l-205 -205v-614zM205 1126l256 103l256 -103l-256 308zM307 307v410h307v-410h-307z" />
<glyph unicode="&#xf5;" d="M0 205l205 -205h512l205 205v614l-205 205h-512l-205 -205v-614zM205 1126l153 103l154 -103l205 308l-154 -103l-153 103zM307 307v410h307v-410h-307z" />
<glyph unicode="&#xf6;" d="M0 205l205 -205h512l205 205v614l-205 205h-512l-205 -205v-614zM51 1126v308h307v-308h-307zM307 307v410h307v-410h-307zM563 1126v308h307v-308h-307z" />
<glyph unicode="&#xf7;" horiz-adv-x="819" d="M0 563v307h717v-307h-717zM205 205v307h307v-307h-307zM205 922v307h307v-307h-307z" />
<glyph unicode="&#xf8;" horiz-adv-x="1333" d="M0 106l166 166v547l205 205h512l16 -18l115 114l217 -217l-144 -143v-555l-204 -205h-512l-23 20l-131 -131zM473 580l137 137h-137v-137zM635 307h145v146z" />
<glyph unicode="&#xf9;" d="M0 205l205 -205h512l205 205v819h-308v-717h-307v717h-307v-819zM205 1126h512l-512 308v-308z" />
<glyph unicode="&#xfa;" d="M0 205l205 -205h512l205 205v819h-308v-717h-307v717h-307v-819zM205 1126h512v308z" />
<glyph unicode="&#xfb;" d="M0 205l205 -205h512l205 205v819h-308v-717h-307v717h-307v-819zM205 1126l256 103l256 -103l-256 308z" />
<glyph unicode="&#xfc;" d="M0 205l205 -205h512l205 205v819h-308v-717h-307v717h-307v-819zM51 1126v308h307v-308h-307zM563 1126v308h307v-308h-307z" />
<glyph unicode="&#xfd;" d="M0 1024l307 -1024l-153 -410h325l443 1434h-359l-102 -512l-103 512h-358zM205 1126h512v308z" />
<glyph unicode="&#xfe;" d="M0 -410h307v512l103 -102h307l205 205v614l-205 205h-307l-103 -102v512h-307v-1844zM307 307v410h307v-410h-307z" />
<glyph unicode="&#xff;" d="M0 1024l307 -1024l-153 -410h325l443 1434h-359l-102 -512l-103 512h-358zM51 1126v308h307v-308h-307zM563 1126v308h307v-308h-307z" />
<glyph unicode="&#x152;" horiz-adv-x="1638" d="M0 205l205 -205h1331v307h-614v256h307v307h-307v256h614v308h-1331l-205 -205v-1024zM307 307v819h307v-819h-307z" />
<glyph unicode="&#x153;" horiz-adv-x="1638" d="M0 205l205 -205h512l51 51l51 -51h512l205 205v102h-614v51h614v461l-205 205h-512l-51 -51l-51 51h-512l-205 -205v-614zM307 307v410h307v-410h-307zM922 666v51h307v-51h-307z" />
<glyph unicode="&#x178;" d="M0 1434h346l115 -457l108 457h353l-308 -768v-666h-307v666zM51 1485v307h307v-307h-307zM563 1485v307h307v-307h-307z" />
<glyph unicode="&#x2c6;" horiz-adv-x="614" d="M0 1126l256 103l256 -103l-256 308z" />
<glyph unicode="&#x2000;" horiz-adv-x="896" />
<glyph unicode="&#x2001;" horiz-adv-x="1792" />
<glyph unicode="&#x2002;" horiz-adv-x="896" />
<glyph unicode="&#x2003;" horiz-adv-x="1792" />
<glyph unicode="&#x2004;" horiz-adv-x="597" />
<glyph unicode="&#x2005;" horiz-adv-x="448" />
<glyph unicode="&#x2006;" horiz-adv-x="298" />
<glyph unicode="&#x2007;" horiz-adv-x="298" />
<glyph unicode="&#x2008;" horiz-adv-x="224" />
<glyph unicode="&#x2009;" horiz-adv-x="358" />
<glyph unicode="&#x200a;" horiz-adv-x="99" />
<glyph unicode="&#x2010;" horiz-adv-x="819" d="M0 614v308h717v-308h-717z" />
<glyph unicode="&#x2011;" horiz-adv-x="819" d="M0 614v308h717v-308h-717z" />
<glyph unicode="&#x2012;" horiz-adv-x="819" d="M0 614v308h717v-308h-717z" />
<glyph unicode="&#x2013;" horiz-adv-x="1126" d="M0 563v307h1024v-307h-1024z" />
<glyph unicode="&#x2014;" horiz-adv-x="1536" d="M0 563v307h1434v-307h-1434z" />
<glyph unicode="&#x2018;" horiz-adv-x="409" d="M0 922v307l307 205v-512h-307z" />
<glyph unicode="&#x2019;" horiz-adv-x="409" d="M0 922v512h307v-308z" />
<glyph unicode="&#x201a;" />
<glyph unicode="&#x201c;" horiz-adv-x="819" d="M0 922v307l307 205v-512h-307zM410 922v307l307 205v-512h-307z" />
<glyph unicode="&#x201d;" horiz-adv-x="819" d="M0 922v512h307v-308zM410 922v512h307v-308z" />
<glyph unicode="&#x2022;" horiz-adv-x="378" d="M0 625l61 -62h154l61 62v184l-61 61h-154l-61 -61v-184z" />
<glyph unicode="&#x2026;" horiz-adv-x="1228" d="M0 0v307h307v-307h-307zM410 0v307h307v-307h-307zM819 0v307h307v-307h-307z" />
<glyph unicode="&#x202f;" horiz-adv-x="358" />
<glyph unicode="&#x205f;" horiz-adv-x="448" />
<glyph unicode="&#x20ac;" horiz-adv-x="1177" d="M0 358l51 308h148v102h-199l51 307h148v154l204 205h467l205 -205v-205h-307v102h-262v-51h211l-51 -307h-160v-102h211l-51 -308h-160v-51h262v103h307v-205l-205 -205h-467l-204 205v153h-199z" />
<glyph unicode="&#x25fc;" d="M0 0v1024h1024v-1024h-1024z" />
</font>
</defs>
</svg>
