<svg id="8b81c3cb-6c8a-4923-a8b9-c5bcbe230ab7" data-name="Layer 1" xmlns="http://www.w3.org/2000/svg" viewBox="0 0 285.27 32.82"><defs><style>.\35 2fb270d-e8d1-41d9-9a4c-9d003aad4e0a{fill:#222431;}</style></defs><title>nassco</title><polygon class="52fb270d-e8d1-41d9-9a4c-9d003aad4e0a" points="10.28 19.58 10.28 30.99 10.24 30.99 3.09 19.58 1.76 19.58 1.76 32.55 2.93 32.55 2.93 21.34 2.96 21.34 9.97 32.55 11.44 32.55 11.44 19.58 10.28 19.58"/><path class="52fb270d-e8d1-41d9-9a4c-9d003aad4e0a" d="M19,20.66,21.85,28H16.19Zm-.66-1.08-5.14,13h1.2l1.37-3.51h6.45l1.38,3.51h1.28l-5.18-13Z" transform="translate(0 0)"/><path class="52fb270d-e8d1-41d9-9a4c-9d003aad4e0a" d="M30,32.82a3.75,3.75,0,0,1-3.86-3.64h1.26c0,2,1.51,2.57,3.25,2.57,1.46,0,3.13-.85,3.13-2.5,0-1.29-.94-1.91-2-2.27-2.11-.7-5.3-1.36-5.3-4.16,0-2.27,2.08-3.51,4.13-3.51,1.71,0,3.93.6,4.22,3.09H33.5c0-1.6-1.49-2-2.82-2s-3,.68-3,2.26c0,3.69,7.34,2,7.34,6.49,0,2.82-2.43,3.68-5,3.68" transform="translate(0 0)"/><path class="52fb270d-e8d1-41d9-9a4c-9d003aad4e0a" d="M40.94,32.82a3.74,3.74,0,0,1-3.86-3.64h1.26c0,2,1.5,2.57,3.25,2.57,1.45,0,3.12-.85,3.12-2.5,0-1.29-.93-1.91-2-2.27-2.1-.7-5.3-1.36-5.3-4.16,0-2.27,2.09-3.51,4.14-3.51,1.7,0,3.93.6,4.22,3.09H44.48c0-1.6-1.49-2-2.82-2s-3,.68-3,2.26c0,3.69,7.33,2,7.33,6.49,0,2.82-2.42,3.68-5,3.68" transform="translate(0 0)"/><path class="52fb270d-e8d1-41d9-9a4c-9d003aad4e0a" d="M56.75,22.62c-.22-1.58-1.58-2.23-3-2.23-3.33,0-4.33,3-4.33,5.68s1,5.68,4.33,5.68a3,3,0,0,0,3.19-2.34h1.26a4.32,4.32,0,0,1-4.45,3.41c-3.94,0-5.59-3.16-5.59-6.75s1.67-6.76,5.59-6.76c2.12,0,4.13,1,4.31,3.31Z" transform="translate(0 0)"/><path class="52fb270d-e8d1-41d9-9a4c-9d003aad4e0a" d="M66,32.82c-3.72,0-5.78-2.71-5.78-6.75s2.06-6.76,5.78-6.76,5.79,2.72,5.79,6.76S69.7,32.82,66,32.82m0-1.07c3.24,0,4.53-2.84,4.53-5.68S69.22,20.39,66,20.39s-4.52,2.84-4.52,5.68,1.29,5.68,4.52,5.68" transform="translate(0 0)"/><path class="52fb270d-e8d1-41d9-9a4c-9d003aad4e0a" d="M6.59,12.29C3,12.29,0,9.86,0,6.15S3,0,6.59,0H17.72V3h-10C5.82,3,4.13,4.06,4.13,6.15S5.82,9.34,7.76,9.34h5.9v-2H9.27V4.67h8.45v7.62Zm13.84,0V0H34.59V3H24.5V4.67H34.59V7.36H24.5v2H34.59v2.95Zm28.85,0L41,2.68h0v9.61h-3.9V0h6.35l6.87,8h.05V0h3.72V12.29Zm7.48,0V0H70.9V3H60.82V4.67H70.9V7.36H60.82v2H70.9v2.95Zm30-4.22c1.07,1.42,2.13,2.82,3.17,4.22H85.32L82.54,8.44H77.46v3.85H73.38V0H85c2.71,0,5.22,1.25,5.22,4.26,0,2.19-1.4,3.36-3.39,3.81M84.14,2.76H77.46V5.68h6.68c.92,0,1.82-.42,1.82-1.45s-.88-1.47-1.82-1.47" transform="translate(0 0)"/><path class="52fb270d-e8d1-41d9-9a4c-9d003aad4e0a" d="M108,12.29,106.46,10H96.9l-1.42,2.34H90.85L98.9,0h6l8,12.29ZM101.79,2.22h-.14L98.65,7h6.17Zm12.34,10.07V0h4.06V9.34h10v2.95Zm36.09,0H138.57V0h11.65c3.61,0,6.6,2.41,6.6,6.15s-3,6.14-6.6,6.14M149.06,3h-6.45V9.34h6.45c1.94,0,3.63-1.1,3.63-3.19S151,3,149.06,3M168.11,8v4.28h-4V8l-8-8h5.24l5,4.89L171.26,0h4.87Zm21.19,4.28-8-8.58h0v8.58h-3.87l0-12.29H183l7.4,8h.06V0h3.72V12.29Z" transform="translate(0 0)"/><path class="52fb270d-e8d1-41d9-9a4c-9d003aad4e0a" d="M212.31,12.29,210.79,10h-9.55l-1.42,2.34h-4.64L203.24,0h6l8,12.29ZM206.12,2.22H206L203,7h6.17Zm30.75,10.07V3h-.1l-5.26,9.32h-3.93L222.44,3h-.1v9.32h-3.88V0h6.46l4.67,8.63h.08L234.33,0h6.39V12.29ZM243.41,0h4.07V12.29h-4.07Zm12.83,12.29c-3.57,0-6.59-2.43-6.59-6.14s3-6.15,6.59-6.15h10.08V3h-8.91c-1.94,0-3.63,1.11-3.63,3.2s1.69,3.19,3.63,3.19h8.91v2.95Zm24.93,0H268.92V9.46h11c.62,0,1.28-.17,1.28-.91s-.64-.91-1.28-.91h-7.39a3.78,3.78,0,0,1-3.79-3.83A3.75,3.75,0,0,1,272.49,0h12.36V2.83h-11c-.56,0-1.05.22-1.05.84s.52.84,1.05.84h7.36a3.9,3.9,0,1,1,0,7.78" transform="translate(0 0)"/></svg>